<svg width="48" height="48" viewBox="0 0 48 48" fill="none" xmlns="http://www.w3.org/2000/svg">
<g id="5 35" clip-path="url(#clip0_12_322)">
<g id="Group">
<path id="Vector" d="M11.4039 28.9177C11.4039 26.9603 11.7587 25.0409 12.4585 23.2129L14.0344 19.0965L16.1542 20.236C16.7516 19.1748 17.4774 18.2001 18.3139 17.3437C19.7082 15.916 21.3558 14.8466 23.0786 14.2511L24 13.9325L24.9215 14.2511C26.6443 14.8466 28.2919 15.9161 29.6862 17.3437C30.5226 18.2001 31.2485 19.1748 31.8459 20.2361L33.9657 19.0964L35.5416 23.2129C36.2413 25.0409 36.5962 26.9603 36.5962 28.9177C36.5962 31.5825 35.7736 34.1206 34.2496 36.2432C34.6216 36.1521 35.0044 36.0899 35.3959 36.0576C39.4892 32.7344 42.1101 27.6648 42.1101 21.9936C42.1101 19.0677 41.5798 16.1988 40.5338 13.4665L39.2264 10.0513L35.8444 11.8694C33.4167 5.33073 28.4823 1.54955 24.4608 0.159241L24 0L23.5393 0.159241C19.5178 1.54955 14.5834 5.33073 12.1556 11.8693L8.77369 10.0512L7.46629 13.4664C6.42032 16.1989 5.88995 19.0678 5.88995 21.9935C5.88995 27.6647 8.51086 32.7344 12.6042 36.0576C12.9957 36.0898 13.3785 36.152 13.7505 36.2431C12.2266 34.1205 11.4039 31.5825 11.4039 28.9177Z" fill="#D3001B"/>
<path id="Vector_2" d="M19.4731 37.5839C20.7251 36.6114 22.2955 36.0302 23.9999 36.0302C25.7044 36.0302 27.2747 36.6114 28.5267 37.5839C31.6466 35.9509 33.7759 32.6831 33.7759 28.9176C33.7759 27.3123 33.4816 25.7204 32.9077 24.2211L32.4777 23.098L30.4565 24.1846C29.2826 20.0758 26.3477 17.7279 23.9998 16.9163C21.652 17.7279 18.7171 20.0758 17.5432 24.1846L15.5221 23.098L15.0921 24.2211C14.5181 25.7204 14.2239 27.3123 14.2239 28.9176C14.224 32.6832 16.3532 35.9509 19.4731 37.5839Z" fill="#D3001B"/>
<path id="Vector_3" d="M15.2207 46.6562C17.007 44.8699 17.007 41.9737 15.2207 40.1873C13.4343 38.401 10.5381 38.401 8.75182 40.1873C6.96549 41.9737 6.9655 44.8699 8.75182 46.6562C10.5381 48.4425 13.4343 48.4425 15.2207 46.6562Z" fill="#D3001B"/>
<path id="Vector_4" d="M27.2273 46.6575C29.0136 44.8712 29.0136 41.975 27.2273 40.1887C25.4409 38.4024 22.5447 38.4024 20.7584 40.1887C18.9721 41.975 18.9721 44.8712 20.7584 46.6575C22.5447 48.4438 25.4409 48.4438 27.2273 46.6575Z" fill="#D3001B"/>
<path id="Vector_5" d="M39.2337 46.6587C41.02 44.8724 41.02 41.9762 39.2337 40.1899C37.4474 38.4036 34.5512 38.4036 32.7649 40.1899C30.9786 41.9762 30.9786 44.8724 32.7649 46.6587C34.5512 48.4451 37.4474 48.4451 39.2337 46.6587Z" fill="#D3001B"/>
</g>
</g>
<defs>
<clipPath id="clip0_12_322">
<rect width="48" height="48" fill="white"/>
</clipPath>
</defs>
</svg>
