<svg width="48" height="48" viewBox="0 0 48 48" fill="none" xmlns="http://www.w3.org/2000/svg">
<g id="help_m8bkq3br6dse 1">
<g id="Group">
<path id="Vector" d="M43.5 45.75V39H45L42 33.75L39 39H40.5V45.75H34.5V42H36L33 36.75L30 42H31.5V45.75H27.75V47.25H47.25V45.75H43.5Z" fill="#D3001B"/>
<path id="Vector_2" d="M17.25 18H19.9395C20.1105 18 20.25 17.8605 20.25 17.6895C20.25 17.6077 20.217 17.5275 20.1585 17.4697L18.3488 15.6592C17.6407 14.9505 17.25 14.0085 17.25 13.0072V12.5115C16.7107 12.3195 16.212 12.0225 15.7958 11.6055L15.7178 11.5267C14.6948 12.3202 13.4453 12.7492 12.1298 12.7492H12C11.2815 12.7492 10.6485 12.405 10.236 11.8792C9.285 12.4897 8.574 13.398 8.211 14.4862L8.04075 15H6.75C5.92275 15 5.25 15.6727 5.25 16.5C5.25 17.3272 5.92275 18 6.75 18H8.25V27.75H12.0938C12.315 27.75 12.534 27.762 12.75 27.783V26.8972C11.8012 26.7037 10.9282 26.238 10.227 25.5375L9.969 25.2795L11.031 24.2197L11.2882 24.477C11.9475 25.137 12.825 25.5 13.7572 25.5C15.0375 25.5 16.1475 24.8002 16.755 23.7705C15.2948 23.2522 14.25 21.8715 14.25 20.25V19.5H17.25V18Z" fill="#D3001B"/>
<path id="Vector_3" d="M29.9999 28.6845C29.9999 28.1692 29.5807 27.75 29.0654 27.75H24.7499C23.3557 27.75 22.1917 28.71 21.8564 30H27.6577L29.2927 29.5913C29.7089 29.487 29.9999 29.1142 29.9999 28.6845Z" fill="#D3001B"/>
<path id="Vector_4" d="M17.9505 40.7693L16.5502 40.2307L16.8397 39.4785L14.001 35.8275C12.9727 34.5075 11.4233 33.75 9.75 33.75V32.25C11.8898 32.25 13.8698 33.219 15.1838 34.9072L17.25 37.5645V34.4062C17.25 31.563 14.937 29.25 12.0938 29.25H7.86L7.3965 29.829C6.01275 31.56 5.25 33.7342 5.25 35.9505C5.25 41.3542 9.64575 45.75 15.0495 45.75C19.1827 45.75 22.8375 43.1152 24.1448 39.1942L26.709 31.5H21.5145L17.9505 40.7693Z" fill="#D3001B"/>
<path id="Vector_5" d="M6.75 22.5255V19.5C5.0955 19.5 3.75 18.1545 3.75 16.5C3.75 14.8455 5.0955 13.5 6.75 13.5H6.984C7.54425 12.192 8.5125 11.1225 9.75825 10.4228C9.7995 9.21825 10.7858 8.25 12 8.25H12.75V9.75H12C11.586 9.75 11.25 10.0868 11.25 10.5C11.25 10.9133 11.586 11.25 12 11.25H12.129C13.2968 11.25 14.3947 10.7955 15.2197 9.96975L15.75 9.43875L16.8563 10.545C17.31 11.0003 17.9145 11.25 18.5573 11.25C19.4902 11.25 20.25 10.491 20.25 9.55725V8.17425C20.0077 8.22375 19.7565 8.25 19.5 8.25H18V6.75H19.5C20.7405 6.75 21.75 5.7405 21.75 4.5C21.75 3.2595 20.7405 2.25 19.5 2.25H19.281C16.464 2.25 13.9305 3.81525 12.6713 6.33525L12.4635 6.75H10.5982C5.99475 6.75 2.25 10.4955 2.25 15.0983C2.25 18.0143 3.8025 20.757 6.303 22.257L6.75 22.5255Z" fill="#D3001B"/>
<path id="Vector_6" d="M17.2148 22.3583C17.2268 22.2413 17.25 22.1273 17.25 22.0073V21H15.879C16.1003 21.6248 16.5915 22.1258 17.2148 22.3583Z" fill="#D3001B"/>
<path id="Vector_7" d="M35.25 16.5V15.4635L33 14.3385L30.75 15.4635V16.5C30.75 17.7405 31.7595 18.75 33 18.75C34.2405 18.75 35.25 17.7405 35.25 16.5Z" fill="#D3001B"/>
<path id="Vector_8" d="M37.5533 22.968C36.8408 22.2923 35.9333 21.873 34.9508 21.7748L34.7565 22.164C34.4213 22.8338 33.7485 23.25 33 23.25C32.2515 23.25 31.5788 22.8338 31.2435 22.1648L31.0493 21.7755C30.0668 21.8738 29.1593 22.293 28.4468 22.968C29.6483 24.0705 31.2443 24.75 33 24.75C34.7558 24.75 36.3518 24.0705 37.5533 22.968Z" fill="#D3001B"/>
<path id="Vector_9" d="M22.1362 15.75H20.5613L21.2205 16.4093C21.5565 16.7467 21.75 17.2133 21.75 17.6895C21.75 18.6877 20.9378 19.5 19.9395 19.5H18.75V20.25H22.1362C23.0632 20.25 23.8605 20.7817 24.2145 21.639C24.57 22.4963 24.3825 23.4353 23.727 24.0915L22.3935 25.425L23.4202 26.4518C23.8402 26.3205 24.2873 26.25 24.75 26.25H29.0655C30.408 26.25 31.5 27.342 31.5 28.6845C31.5 29.3662 31.2157 29.9917 30.75 30.4387V30.75H35.25V28.8638C35.25 27.936 35.7825 27.1395 36.6398 26.7848C37.4993 26.4315 38.4368 26.6175 39.0915 27.273L40.425 28.6065L43.6073 25.4242L42.2738 24.0907C41.6183 23.4345 41.4307 22.4955 41.7863 21.6383C42.1402 20.7817 42.9368 20.25 43.8638 20.25H45.75V15.75H43.8638C42.9368 15.75 42.1395 15.2183 41.7855 14.361C41.43 13.5038 41.6175 12.5648 42.273 11.9085L43.6065 10.575L40.4242 7.39275L39.0907 8.72625C38.436 9.3825 37.4985 9.57 36.639 9.2145C35.7825 8.85975 35.25 8.06325 35.25 7.13625V5.25H30.75V7.13625C30.75 8.064 30.2175 8.8605 29.3602 9.21525C28.5022 9.57075 27.564 9.38325 26.9085 8.727L25.575 7.3935L22.3928 10.5757L23.7263 11.9092C24.3818 12.5655 24.5693 13.5045 24.2137 14.3617C23.8597 15.2183 23.0632 15.75 22.1362 15.75ZM33 9.75C37.5487 9.75 41.25 13.4513 41.25 18C41.25 22.5487 37.5487 26.25 33 26.25C28.4513 26.25 24.75 22.5487 24.75 18C24.75 13.4513 28.4513 9.75 33 9.75Z" fill="#D3001B"/>
<path id="Vector_10" d="M30.0787 14.1218L33 12.6615L35.9213 14.1218C36.1808 14.2515 36.3885 14.448 36.5325 14.685C36.6712 14.379 36.75 14.0468 36.75 13.7003C36.75 13.227 36.6112 12.7687 36.3488 12.3757C36.2445 12.219 36.1155 12.0818 35.9797 11.9528C35.0797 11.5073 34.0703 11.25 33 11.25C31.9297 11.25 30.9203 11.5073 30.0203 11.9528C29.8845 12.0818 29.7562 12.219 29.652 12.375C29.3887 12.7687 29.25 13.227 29.25 13.7003C29.25 14.0468 29.3288 14.379 29.4683 14.685C29.6115 14.4488 29.82 14.2515 30.0787 14.1218Z" fill="#D3001B"/>
<path id="Vector_11" d="M32.25 20.1742V20.8229L32.5852 21.4934C32.7435 21.8099 33.2565 21.8099 33.414 21.4934L33.75 20.8229V20.1742C33.5078 20.2237 33.2565 20.2499 33 20.2499C32.7435 20.2499 32.4923 20.2237 32.25 20.1742Z" fill="#D3001B"/>
</g>
</g>
</svg>
