<svg width="48" height="48" viewBox="0 0 48 48" fill="none" xmlns="http://www.w3.org/2000/svg">
<g id="coin_toss_lrt219nmhx1k 1">
<g id="layer6">
<g id="Group">
<path id="path853" d="M3.00623 22.5354H6.01095C7.16502 22.5354 7.68212 23.0505 7.96813 23.6226C8.25413 24.1946 8.26156 24.786 8.26156 24.786V41.3164C8.26156 41.3164 8.25412 41.9093 7.96813 42.4813C7.68212 43.0533 7.15769 43.5685 6.01095 43.5685H3.00623V22.5354Z" fill="#D3001B"/>
<path id="path851" d="M25.7397 14.2093C26.1762 14.2151 27.1438 14.2992 27.9082 14.8724C28.4951 15.3126 28.9871 16.0084 29.1127 17.3901C29.2383 18.7718 28.9442 20.8333 27.8422 23.7722C27.6581 24.2635 28.0217 24.7865 28.5464 24.786H33.0549C33.0549 24.786 33.6464 24.8007 34.2184 25.0867C34.7904 25.3727 35.3056 25.8987 35.3056 27.0439C35.3056 28.1487 34.8229 28.6806 34.2741 28.9732C33.7254 29.2658 33.0735 29.294 33.0432 29.2945H27.044C26.6269 29.2929 26.2883 29.6315 26.2899 30.0486C26.2913 30.4637 26.629 30.7985 27.044 30.7969C27.0432 30.7974 29.8527 30.7971 31.5526 30.7969C31.5526 30.7969 32.144 30.8116 32.716 31.0977C33.288 31.3837 33.8032 31.9022 33.8032 33.0548C33.8032 34.1341 33.349 34.6524 32.8217 34.9504C32.2943 35.2484 31.6498 35.3019 31.5408 35.3054H27.044C26.629 35.3038 26.2913 35.6387 26.2899 36.0537C26.2883 36.4709 26.6269 36.8109 27.044 36.8093H30.0752C30.1964 36.8147 30.7132 36.8525 31.2137 37.1027C31.7857 37.3887 32.3008 37.8079 32.3008 39.0599C32.3008 40.3118 31.7857 40.731 31.2137 41.0171C30.6417 41.3031 30.0488 41.3164 30.0488 41.3164H27.044C26.629 41.3147 26.2913 41.6496 26.2899 42.0646C26.2883 42.4818 26.6269 42.8218 27.044 42.8202H30.0488C30.0488 42.8202 30.357 42.8224 30.797 42.7336V43.5684C30.797 44.8204 30.2833 45.2396 29.7113 45.5256C29.1393 45.8116 28.5464 45.819 28.5464 45.819H22.5355C20.0852 45.819 18.5701 44.9712 16.6742 44.0232C14.8999 43.1361 12.8215 42.1934 9.67737 42.0763C9.76863 41.6302 9.7654 41.3164 9.7654 41.3164V24.786H18.0269C18.1984 24.7859 18.3658 24.7278 18.4993 24.6202C18.4993 24.6202 20.2477 23.2088 21.9926 21.1489C23.5627 19.2954 25.2543 16.7855 25.5079 14.2152C25.5079 14.2152 25.5942 14.2074 25.7397 14.2093Z" fill="#D3001B"/>
<path id="path847" d="M29.8991 3.59155C30.2039 4.02873 30.6056 4.47556 31.0919 4.94573C32.3653 6.17702 34.2268 7.5417 36.4265 8.81167C38.6261 10.0816 40.7446 11.0138 42.4476 11.501C43.0977 11.6869 43.6819 11.81 44.2112 11.8545L43.5994 12.9138L43.5979 12.9123C43.5852 12.9092 43.4813 12.9723 43.1738 12.9754C42.7639 12.9796 42.1211 12.8788 41.356 12.66C39.8259 12.2222 37.7885 11.3337 35.6767 10.1145C33.5649 8.89524 31.7753 7.57196 30.6312 6.46566C30.0591 5.91251 29.6515 5.40847 29.4501 5.05133C29.2991 4.78347 29.2996 4.66297 29.2902 4.65373C29.2902 4.65373 29.2873 4.65587 29.2858 4.65813L29.8991 3.59155Z" fill="#D3001B"/>
<path id="path845" d="M31.1799 2.05103C31.5899 2.04684 32.2341 2.14907 32.9992 2.36793C34.5293 2.80565 36.5653 3.68835 38.6771 4.90757C40.7888 6.12679 42.5799 7.45007 43.724 8.55637C44.2961 9.10952 44.7038 9.61357 44.9051 9.97071C45.0079 10.153 45.0376 10.2654 45.0504 10.3228C44.9945 10.3395 44.8826 10.3677 44.6777 10.3698C44.2677 10.374 43.6235 10.2717 42.8584 10.0529C41.3283 9.61514 39.2923 8.73245 37.1806 7.51323C35.0688 6.29399 33.2777 4.97073 32.1336 3.86443C31.5615 3.31127 31.1539 2.8087 30.9525 2.45156C30.8498 2.26936 30.8185 2.15539 30.8043 2.09798C30.8616 2.0813 30.9749 2.05312 31.1799 2.05103Z" fill="#D3001B"/>
</g>
<path id="path886" d="M36.2359 13.5365C36.0472 13.4743 35.8415 13.4895 35.664 13.5787C35.4865 13.668 35.3517 13.8241 35.2891 14.0126C34.9853 14.9242 34.1171 16.0096 33.3126 16.8141C32.5082 17.6185 31.8012 18.1483 31.8012 18.1483C31.7222 18.2075 31.6556 18.2817 31.6053 18.3666C31.555 18.4515 31.522 18.5455 31.5081 18.6433C31.4942 18.741 31.4997 18.8405 31.5244 18.9361C31.549 19.0317 31.5923 19.1214 31.6517 19.2003C31.7711 19.3583 31.9481 19.4627 32.1441 19.4907C32.3401 19.5187 32.5393 19.468 32.6981 19.3497C32.6981 19.3497 33.4926 18.7546 34.3756 17.8715C35.2587 16.9885 36.2659 15.8272 36.712 14.4888C36.7437 14.395 36.7564 14.2959 36.7496 14.1972C36.7428 14.0984 36.7165 14.002 36.6722 13.9135C36.6279 13.825 36.5666 13.7461 36.4917 13.6814C36.4168 13.6167 36.3299 13.5674 36.2359 13.5365Z" fill="#D3001B"/>
<path id="path888" d="M40.6817 15.7732C40.4893 15.7253 40.2859 15.7555 40.1157 15.8572C39.9456 15.9588 39.8226 16.1237 39.7737 16.3158C39.4501 17.6103 38.5029 18.9416 37.5647 19.9698C37.0956 20.4839 36.6344 20.9233 36.2636 21.2598C35.8928 21.5963 35.6522 21.7897 35.4719 21.9684C35.3315 22.1082 35.252 22.2979 35.251 22.496C35.2499 22.6941 35.3273 22.8846 35.4662 23.0259C35.5356 23.0963 35.6181 23.1522 35.7091 23.1906C35.8001 23.229 35.8978 23.249 35.9966 23.2495C36.0953 23.25 36.1932 23.231 36.2847 23.1936C36.3761 23.1562 36.4592 23.1011 36.5292 23.0314C36.5479 23.0128 36.878 22.7294 37.2711 22.3726C37.6642 22.0158 38.1594 21.5445 38.6718 20.983C39.6966 19.8599 40.8033 18.3866 41.2296 16.6812C41.2773 16.4881 41.2464 16.284 41.1437 16.1137C41.0409 15.9434 40.8747 15.821 40.6817 15.7732Z" fill="#D3001B"/>
</g>
</g>
</svg>
