<svg width="24" height="24" viewBox="0 0 24 24" fill="none" xmlns="http://www.w3.org/2000/svg">
<g id="edit_jzofsve7eloo 1">
<path id="Vector" fill-rule="evenodd" clip-rule="evenodd" d="M10.656 0.75C7.75651 0.75 5.40601 3.10051 5.40601 6C5.40601 8.8995 7.75651 11.25 10.656 11.25C13.5555 11.25 15.906 8.8995 15.906 6C15.906 3.10051 13.5555 0.75 10.656 0.75ZM20.25 18.2812L16.8994 21.6318C16.859 21.6722 16.8178 21.7116 16.7757 21.7499H18.5C19.4665 21.7499 20.25 20.9664 20.25 19.9999V18.2812ZM10.2195 21.7499C10.1638 21.5338 10.1493 21.3063 10.18 21.0793L10.5315 18.4779C10.6415 17.6642 11.0155 16.9091 11.5961 16.3285L14.7801 13.1445C10.3852 12.1231 5.7094 12.6963 1.62977 14.8643C1.08839 15.152 0.75 15.715 0.75 16.3281V19.9999C0.75 20.9664 1.5335 21.7499 2.5 21.7499H10.2195ZM12.3032 17.0356C11.8774 17.4613 11.6031 18.0151 11.5225 18.6118L11.171 21.2132C11.1396 21.4452 11.2184 21.6784 11.3839 21.844C11.5494 22.0095 11.7827 22.0882 12.0146 22.0569L14.616 21.7053C15.2127 21.6247 15.7665 21.3504 16.1923 20.9247L22.344 14.7729C23.418 13.6989 23.418 11.9577 22.344 10.8838C21.2701 9.80986 19.5289 9.80986 18.4549 10.8838L12.3032 17.0356ZM13.009 18.8127C13.0456 18.5415 13.1703 18.2898 13.3638 18.0962L19.5156 11.9445C20.0038 11.4563 20.7952 11.4563 21.2834 11.9445C21.7715 12.4326 21.7715 13.2241 21.2834 13.7122L15.1316 19.864C14.9381 20.0575 14.6864 20.1822 14.4151 20.2188L12.7893 20.4386L13.009 18.8127Z" fill="#6B6B71"/>
</g>
</svg>
