<svg width="48" height="48" viewBox="0 0 48 48" fill="none" xmlns="http://www.w3.org/2000/svg">
<g id="3 51" clip-path="url(#clip0_7_135)">
<g id="XMLID_566_">
<g id="Group">
<path id="Vector" d="M39.2808 32.0365C39.5923 32.0365 39.8449 31.784 39.8449 31.4724C39.8449 31.1609 39.5923 30.9083 39.2808 30.9083C38.9692 30.9083 38.7167 31.1609 38.7167 31.4724C38.7167 31.784 38.9692 32.0365 39.2808 32.0365Z" fill="#D3001B"/>
<path id="Vector_2" d="M8.79689 32.0365C9.10844 32.0365 9.36099 31.784 9.36099 31.4724C9.36099 31.1609 9.10844 30.9083 8.79689 30.9083C8.48535 30.9083 8.23279 31.1609 8.23279 31.4724C8.23279 31.784 8.48535 32.0365 8.79689 32.0365Z" fill="#D3001B"/>
<g id="Group_2">
<path id="Vector_3" d="M44.2198 38.4234L44.2195 38.423C44.0194 38.2225 44.0197 37.8979 44.2201 37.6978L44.659 37.2597C44.8593 37.0597 45.1838 37.0598 45.3839 37.26L45.3842 37.2603C45.5843 37.4608 45.584 37.7854 45.3836 37.9855L44.9447 38.4237C44.7444 38.6238 44.4199 38.6236 44.2198 38.4234Z" fill="#D3001B"/>
<path id="Vector_4" d="M46.6857 35.9607L46.6855 35.9605C46.4854 35.7601 46.4855 35.4354 46.6859 35.2353L47.1247 34.797C47.325 34.597 47.6495 34.5971 47.8496 34.7972L47.8498 34.7974C48.0499 34.9979 48.0498 35.3226 47.8494 35.5227L47.4106 35.9609C47.2104 36.161 46.8859 36.1609 46.6857 35.9607Z" fill="#D3001B"/>
<path id="Vector_5" d="M44.2199 35.5224C44.0198 35.3223 44.0196 34.9978 44.2197 34.7974C44.4198 34.597 44.7445 34.5968 44.9449 34.797L45.3837 35.2353L45.3839 35.2355C45.584 35.4356 45.5842 35.7601 45.3841 35.9605C45.184 36.1609 44.8593 36.1611 44.6589 35.9609L44.2201 35.5226L44.2199 35.5224Z" fill="#D3001B"/>
<path id="Vector_6" d="M46.6858 37.9852C46.4857 37.7851 46.4855 37.4606 46.6856 37.2602C46.8857 37.0598 47.2104 37.0596 47.4107 37.2597L47.8495 37.6978L47.8498 37.6981C48.0499 37.8982 48.0501 38.2228 47.85 38.4232C47.6499 38.6236 47.3252 38.6238 47.1249 38.4237L46.6861 37.9855L46.6858 37.9852Z" fill="#D3001B"/>
</g>
<g id="Group_3">
<path id="Vector_7" d="M0.150218 34.7953C0.150321 34.7952 0.150321 34.7952 0.150423 34.7951C0.350833 34.595 0.675551 34.5951 0.875654 34.7955L1.31391 35.2342C1.51391 35.4346 1.51381 35.7591 1.31371 35.9593C1.3136 35.9594 1.3136 35.9594 1.3135 35.9595C1.11309 36.1596 0.788372 36.1595 0.588269 35.9591L0.150013 35.5203C-0.0500897 35.3199 -0.0499872 34.9954 0.150218 34.7953Z" fill="#D3001B"/>
<path id="Vector_8" d="M2.61288 37.2612L2.61319 37.2609C2.8136 37.0608 3.13831 37.0611 3.33842 37.2615L3.77657 37.7004C3.97657 37.9007 3.97647 38.2252 3.77626 38.4253L3.77595 38.4256C3.57554 38.6257 3.25083 38.6254 3.05072 38.425L2.61257 37.9861C2.41257 37.7859 2.41267 37.4614 2.61288 37.2612Z" fill="#D3001B"/>
<path id="Vector_9" d="M3.05103 34.7953C3.25113 34.5952 3.57565 34.595 3.77595 34.7951C3.97636 34.9952 3.97657 35.3199 3.77636 35.5203L3.33821 35.9591L3.33801 35.9593C3.1379 36.1594 2.81339 36.1596 2.61308 35.9595C2.41267 35.7594 2.41247 35.4346 2.61267 35.2342L3.05083 34.7955L3.05103 34.7953Z" fill="#D3001B"/>
<path id="Vector_10" d="M0.588378 37.2613C0.788481 37.0612 1.11299 37.061 1.3133 37.2611C1.51371 37.4612 1.51392 37.7859 1.31381 37.9864L0.875558 38.4252L0.87525 38.4255C0.675147 38.6256 0.350634 38.6258 0.150327 38.4257C-0.0500835 38.2256 -0.0502886 37.9009 0.149814 37.7005L0.58807 37.2616L0.588378 37.2613Z" fill="#D3001B"/>
</g>
<g id="Group_4">
<path id="Vector_11" d="M38.4764 47.8478L38.4761 47.8475C38.276 47.647 38.2763 47.3224 38.4767 47.1223L38.9155 46.6841C39.1159 46.4841 39.4404 46.4842 39.6405 46.6844L39.6408 46.6847C39.8409 46.8852 39.8406 47.2098 39.6402 47.4099L39.2013 47.8481C39.001 48.0481 38.6766 48.0479 38.4764 47.8478Z" fill="#D3001B"/>
<path id="Vector_12" d="M40.9424 45.3851C40.9423 45.385 40.9423 45.385 40.9423 45.385C40.7421 45.1845 40.7423 44.8598 40.9427 44.6597L41.3814 44.2214C41.5818 44.0214 41.9063 44.0215 42.1064 44.2216L42.1066 44.2218C42.3067 44.4222 42.3066 44.7469 42.1062 44.947L41.6674 45.3853C41.467 45.5854 41.1425 45.5852 40.9424 45.3851Z" fill="#D3001B"/>
<path id="Vector_13" d="M38.4765 44.9469C38.2764 44.7468 38.2762 44.4223 38.4763 44.2218C38.6764 44.0214 39.0011 44.0212 39.2015 44.2214L39.6403 44.6597L39.6405 44.6599C39.8406 44.86 39.8408 45.1845 39.6407 45.3849C39.4406 45.5853 39.1159 45.5855 38.9154 45.3853L38.4767 44.9471L38.4765 44.9469Z" fill="#D3001B"/>
<path id="Vector_14" d="M40.9424 47.4097C40.7423 47.2096 40.7421 46.885 40.9422 46.6846C41.1423 46.4842 41.467 46.484 41.6673 46.6841L42.1061 47.1223L42.1064 47.1226C42.3065 47.3227 42.3067 47.6472 42.1066 47.8476C41.9065 48.048 41.5818 48.0482 41.3815 47.8481L40.9427 47.41L40.9424 47.4097Z" fill="#D3001B"/>
</g>
<g id="Group_5">
<path id="Vector_15" d="M4.86601 47.8478L4.86581 47.8476C4.66571 47.6472 4.66581 47.3225 4.86622 47.1224L5.30499 46.6841C5.50529 46.4841 5.82981 46.4842 6.02991 46.6843L6.03012 46.6845C6.23022 46.8849 6.23012 47.2097 6.02971 47.4098L5.59094 47.848C5.39063 48.0481 5.06612 48.0479 4.86601 47.8478Z" fill="#D3001B"/>
<path id="Vector_16" d="M7.33183 45.385L7.33153 45.3847C7.13142 45.1842 7.13173 44.8596 7.33214 44.6595L7.77101 44.2213C7.97132 44.0213 8.29583 44.0214 8.49594 44.2216L8.49624 44.2219C8.69635 44.4225 8.69604 44.7471 8.49563 44.9472L8.05676 45.3853C7.85645 45.5853 7.53204 45.5852 7.33183 45.385Z" fill="#D3001B"/>
<path id="Vector_17" d="M4.86612 44.9469C4.66602 44.7468 4.66581 44.4223 4.86592 44.2218C5.06602 44.0214 5.39074 44.0212 5.59115 44.2214L6.02992 44.6596L6.03012 44.6598C6.23022 44.8599 6.23043 45.1844 6.03033 45.3848C5.83022 45.5852 5.50551 45.5854 5.3051 45.3852L4.86633 44.9471L4.86612 44.9469Z" fill="#D3001B"/>
<path id="Vector_18" d="M7.33194 47.4095C7.13184 47.2094 7.13163 46.8849 7.33174 46.6845C7.53184 46.4841 7.85656 46.4839 8.05687 46.684L8.49574 47.1222L8.49604 47.1226C8.69615 47.3227 8.69635 47.6472 8.49625 47.8476C8.29615 48.048 7.97143 48.0482 7.77112 47.8481L7.33225 47.4098C7.33215 47.4097 7.33194 47.4096 7.33194 47.4095Z" fill="#D3001B"/>
</g>
<path id="Vector_19" d="M37.832 35.8833C38.1876 35.2173 38.4944 34.5267 38.7495 33.819C38.8705 33.4831 38.6242 33.1282 38.2671 33.1282C38.0519 33.1282 37.8585 33.2622 37.7857 33.4647C37.5157 34.2159 37.1839 34.9468 36.7928 35.6466C36.7026 35.8078 36.7061 36.0049 36.802 36.1628L38.9363 39.68L35.1412 43.4772L31.6155 41.3354C31.4581 41.2397 31.2611 41.236 31.1002 41.3255C30.1164 41.8721 29.0722 42.3037 27.9967 42.6082C27.819 42.6586 27.6821 42.8005 27.6382 42.98L26.6621 46.9744H21.2955L20.3164 42.9674C20.2726 42.7885 20.1364 42.6468 19.9595 42.5961C18.8846 42.2882 17.8417 41.8536 16.86 41.3042C16.6986 41.2139 16.5012 41.2175 16.3434 41.3135L12.8285 43.4485L9.0334 39.6515L11.1742 36.1235C11.2698 35.9661 11.2736 35.7696 11.1843 35.6085C10.9946 35.2669 10.4098 34.0503 10.0664 33.3089C9.9571 33.0727 9.68766 32.9416 9.44161 33.0264C9.15884 33.1238 9.02684 33.4363 9.14233 33.7017C9.44017 34.3859 9.92735 35.4336 10.1447 35.8432L7.94787 39.4634C7.8253 39.6654 7.85648 39.9249 8.02356 40.0919L12.3878 44.4585C12.5548 44.6257 12.8146 44.6569 13.0167 44.5343L16.623 42.3436C17.5077 42.8164 18.436 43.2034 19.39 43.4968L20.3947 47.6089C20.4508 47.8386 20.6566 48.0001 20.8929 48.0001H27.0648C27.3011 48.0001 27.5068 47.8386 27.5629 47.609L28.5643 43.5106C29.5189 43.22 30.4485 42.8357 31.3347 42.3653L34.9528 44.563C35.155 44.6857 35.4147 44.6545 35.5817 44.4872L39.9459 40.1206C40.113 39.9536 40.1443 39.694 40.0216 39.4921L37.832 35.8833Z" fill="#D3001B"/>
<path id="Vector_20" d="M44.3781 23.2375C43.6476 22.5262 42.6525 22.1522 41.6328 22.1522H41.3868V20.5982C41.3868 12.6445 36.0331 5.91918 28.7408 3.83282C28.2735 1.64554 26.326 0 23.9956 0C21.6832 0 19.7451 1.62851 19.2649 3.79867C16.7912 4.48462 14.4804 5.71118 12.5131 7.416C9.38453 10.1271 7.31817 13.8605 6.69314 17.9305C6.47714 19.3326 6.49027 20.7393 6.49027 22.1522H6.29263C4.19899 22.1522 2.45109 23.9026 2.46135 25.9989C2.4715 28.0617 4.23663 29.8082 6.29263 29.8082H14.3589C15 34.5715 19.1941 38.2368 23.999 38.2368C28.921 38.2368 32.9988 34.5602 33.6382 29.8082H41.7053C43.761 29.8082 45.5265 28.0617 45.5366 25.9989C45.5417 24.9528 45.1296 23.9694 44.3781 23.2375ZM32.8039 15.8837C32.8039 14.9987 33.5249 14.2786 34.4112 14.2786C35.2973 14.2786 36.0184 14.9987 36.0184 15.8837V22.1522H32.8038L32.8039 15.8837ZM20.1753 4.84615C20.1753 2.73949 21.889 1.02564 24.0023 1.02564C26.1088 1.02564 27.8227 2.73949 27.8227 4.84615V22.1522H20.1753V4.84615ZM11.9842 15.8837C11.9842 14.9987 12.7052 14.2786 13.5915 14.2786C14.4777 14.2786 15.1987 14.9987 15.1987 15.8837V22.1522H11.9842V15.8837ZM41.7052 28.7826H6.29263C4.75314 28.7826 3.49448 27.5316 3.48699 25.9938C3.47961 24.4646 4.76402 23.1778 6.29263 23.1778H41.7052C43.0314 23.1778 44.2234 24.1615 44.4639 25.4674H19.1986C18.9153 25.4674 18.6858 25.697 18.6858 25.9802C18.6858 26.2634 18.9153 26.493 19.1986 26.493H44.4628C44.2201 27.7932 43.0742 28.7826 41.7052 28.7826Z" fill="#D3001B"/>
<path id="Vector_21" d="M16.3075 26.493H14.8442C14.561 26.493 14.3314 26.2634 14.3314 25.9802C14.3314 25.697 14.561 25.4674 14.8442 25.4674H16.3075C16.5908 25.4674 16.8203 25.697 16.8203 25.9802C16.8203 26.2634 16.5908 26.493 16.3075 26.493Z" fill="#D3001B"/>
</g>
<path id="XMLID_30_" d="M3.19303 13.066L4.71795 13.9011L3.19303 14.7363L2.35897 16.2633L1.52492 14.7363L0 13.9011L1.52492 13.066L2.35897 11.5389L3.19303 13.066Z" fill="#D3001B"/>
<path id="XMLID_31_" d="M10.475 1.52708L11.9999 2.36215L10.475 3.19733L9.64096 4.72441L8.80691 3.19733L7.28198 2.36215L8.80691 1.52708L9.64096 0L10.475 1.52708Z" fill="#D3001B"/>
<path id="XMLID_29_" d="M37.5249 1.52708L36 2.36215L37.5249 3.19733L38.359 4.72441L39.193 3.19733L40.7179 2.36215L39.193 1.52708L38.359 0L37.5249 1.52708Z" fill="#D3001B"/>
<path id="XMLID_28_" d="M44.8069 13.066L43.282 13.9011L44.8069 14.7363L45.641 16.2633L46.475 14.7363L47.9999 13.9011L46.475 13.066L45.641 11.5389L44.8069 13.066Z" fill="#D3001B"/>
</g>
</g>
<defs>
<clipPath id="clip0_7_135">
<rect width="48" height="48" fill="white"/>
</clipPath>
</defs>
</svg>
