<svg width="49" height="48" viewBox="0 0 49 48" fill="none" xmlns="http://www.w3.org/2000/svg">
<g id="4 4">
<path id="Vector" d="M45.4516 20.624L41.2001 19.9059H41.1852C41.0457 19.8807 40.9346 19.774 40.903 19.6354C40.4962 18.0552 39.867 16.5404 39.0343 15.1367C38.9576 15.0091 38.9633 14.8488 39.0479 14.7266L41.5511 11.2105C41.5609 11.1957 41.5719 11.1805 41.5817 11.1648C41.9027 10.6641 41.8323 10.0079 41.4131 9.58711L38.3926 6.56659C38.1562 6.32858 37.8339 6.19538 37.498 6.19601C37.2622 6.19948 37.0315 6.26861 36.8317 6.39456L36.7664 6.43843L33.278 8.94601C33.1556 9.03281 32.9943 9.03944 32.8655 8.96305C31.427 8.11646 29.8746 7.48105 28.2556 7.07543C28.1117 7.03723 28.004 6.91728 27.981 6.77019L27.273 2.55081C27.1833 1.93401 26.6537 1.47663 26.0299 1.47852H23.9785C14.8686 1.47852 6.65587 6.96653 3.16976 15.3829C-0.316664 23.7992 1.61042 33.4867 8.05202 39.9283C12.2664 44.1663 18.0012 46.542 23.9785 46.5256H26.1054C26.7237 46.529 27.2525 46.0808 27.3494 45.4703L28.0678 41.2191C28.0681 41.2146 28.0681 41.2099 28.0678 41.2052C28.0931 41.0647 28.1991 40.9533 28.338 40.9211C29.9188 40.5155 31.434 39.8863 32.8377 39.053C32.9652 38.9769 33.1253 38.982 33.248 39.066L36.7572 41.5647C37.2581 41.9274 37.9485 41.8709 38.3847 41.4324L41.4059 38.4081C41.8374 37.9722 41.8942 37.2894 41.541 36.7879L39.04 33.268C38.9542 33.1468 38.9466 32.9867 39.0211 32.8583C39.856 31.4523 40.4864 29.9343 40.8932 28.3507C40.9308 28.2105 41.0476 28.1051 41.1912 28.0827L45.4387 27.3731C45.9412 27.2945 46.3459 26.9189 46.4617 26.4233C46.4914 26.3283 46.5059 26.2298 46.5056 26.1304V21.8639C46.5075 21.2475 46.0602 20.7213 45.4516 20.624ZM24.9718 14.5716C29.7922 15.0795 33.4513 19.1446 33.4513 23.9918C33.4513 28.8387 29.7922 32.9037 24.9718 33.4116V14.5716ZM14.2922 40.7699C13.8172 40.4956 13.2095 40.6584 12.9352 41.1335L12.8598 41.2639C10.398 39.673 8.30265 37.5773 6.71175 35.1158L6.8418 35.0404C7.15209 34.8639 7.34369 34.535 7.34432 34.1786C7.34527 33.822 7.15493 33.4924 6.8459 33.3153C6.53687 33.1373 6.15587 33.1389 5.84842 33.3194L5.71522 33.3961C4.36831 30.7907 3.59937 27.9255 3.46111 24.9956H5.32791C5.87652 24.9956 6.32128 24.5511 6.32128 24.0019C6.32128 23.4533 5.87652 23.0085 5.32791 23.0085H3.46111C3.59937 20.0789 4.36831 17.2137 5.71522 14.6083L5.84842 14.6846C6.32317 14.9548 6.92702 14.7907 7.19975 14.3179C7.47279 13.8447 7.31339 13.2402 6.8418 12.9637L6.71175 12.8886C8.30265 10.4271 10.398 8.33111 12.8598 6.7402L12.9352 6.87088C13.1114 7.18054 13.44 7.37215 13.7967 7.37309C14.153 7.37372 14.4829 7.18338 14.6603 6.87436C14.8383 6.56533 14.8361 6.18465 14.6562 5.8772L14.5795 5.74399C17.1862 4.39614 20.0533 3.6272 22.9848 3.48957V21.3822L15.5126 11.5262C15.1811 11.089 14.558 11.0031 14.1205 11.3346C13.6833 11.6657 13.5975 12.2894 13.9289 12.7266L22.6234 24.2011L17.7727 28.459C17.3891 28.8276 17.3636 29.4328 17.7152 29.8321C18.0662 30.2314 18.6698 30.2828 19.0842 29.9495L22.9848 26.5316V44.5145C20.0552 44.3762 17.1896 43.6073 14.5842 42.2604L14.6609 42.1272C14.7926 41.8983 14.8273 41.6266 14.7581 41.3721C14.6887 41.1177 14.5214 40.9009 14.2922 40.7699Z" fill="#D3001B"/>
</g>
</svg>
