<svg width="48" height="48" viewBox="0 0 48 48" fill="none" xmlns="http://www.w3.org/2000/svg">
<g id="1 29" clip-path="url(#clip0_6_110)">
<path id="Vector" d="M6.18777 7.98131L8.02947 6.13961L6.63423 3.34004L2.87679 1.83307L1.88123 2.82818L3.3882 6.58607L6.18777 7.98131Z" fill="#D3001B"/>
<path id="Vector_2" d="M21.2379 24.4036L15.7192 29.921C16.3823 30.8507 17.1948 31.6636 18.1245 32.3263L23.7 26.7512L21.2379 24.4036Z" fill="#D3001B"/>
<path id="Vector_3" d="M26.803 23.6482L32.3749 18.0764C31.7123 17.1467 30.8993 16.3337 29.9696 15.671L24.464 21.1766L26.803 23.6482Z" fill="#D3001B"/>
<path id="Vector_4" d="M27.8245 27.2776L17.3052 16.3219C16.9732 16.6139 16.6607 16.9269 16.3687 17.2589L27.3258 27.7763L27.8245 27.2776Z" fill="#D3001B"/>
<path id="Vector_5" d="M31.5369 28.0134L31.0818 26.6518L26.6999 31.0337L28.0615 31.4884C28.3631 31.5887 28.5929 31.8367 28.6701 32.1451L28.8859 33.0103C30.654 32.0556 32.1046 30.6045 33.0584 28.8355L32.1932 28.6198C31.8853 28.543 31.6377 28.3141 31.5369 28.0134Z" fill="#D3001B"/>
<path id="Vector_6" d="M34.7534 34.7048C35.2935 34.1653 36.1083 34.0104 36.8091 34.3142L41.627 36.4071L43.7199 33.0771L39.3202 29.9051C38.6939 29.4595 38.4082 28.6733 38.6026 27.9294C38.7966 27.1854 39.4301 26.639 40.1945 26.5568L45.4408 25.9614V22.0359L40.2504 21.4596C39.491 21.3764 38.8592 20.8373 38.658 20.1002C38.4568 19.3631 38.7271 18.5778 39.3389 18.12L43.5618 15.0038L41.5898 11.5998L36.8181 13.6831C36.1169 13.9924 35.2976 13.8398 34.7548 13.2988C34.2116 12.7579 34.0558 11.9395 34.3624 11.2369L36.4366 6.44662L33.0416 4.49319L29.9255 8.69754C29.4695 9.30887 28.686 9.58002 27.9494 9.38063C27.2131 9.1817 26.6727 8.55311 26.5864 7.79509L26.0096 2.60516H21.9819L21.4055 7.7583C21.3306 8.4868 20.8296 9.10086 20.1311 9.32068C19.4916 9.53596 18.7858 9.37836 18.2985 8.91146C18.2685 8.88921 18.2403 8.86423 18.2149 8.83698C18.15 8.7743 18.0909 8.70572 18.0382 8.6326L14.9689 4.47457L11.592 6.428L13.6572 11.1624C13.9606 11.8627 13.8053 12.6775 13.2653 13.2171C12.7257 13.7567 11.9113 13.912 11.211 13.6086L6.46708 11.553L4.52318 14.9298L8.71799 18.0178C8.7457 18.0455 8.83881 18.1295 8.87605 18.1572C8.91329 18.1854 8.92283 18.2131 8.95053 18.2412C9.42515 18.7272 9.58684 19.4389 9.36929 20.0829C9.15083 20.7787 8.54086 21.2793 7.81554 21.3569L2.65332 21.9337V25.9519L7.8437 26.5382C8.60309 26.6213 9.23485 27.1604 9.43605 27.8976C9.63726 28.6347 9.36702 29.42 8.75524 29.8773L4.53227 32.9935L6.50432 36.3976L11.2759 34.3142C11.9772 34.0049 12.7965 34.1575 13.3397 34.6985C13.8825 35.2394 14.0383 36.0578 13.7317 36.7605L11.6575 41.5507L15.0525 43.5041L18.1686 39.2998C18.5174 38.8274 19.0692 38.5477 19.6565 38.5463C19.8232 38.5454 19.9894 38.5672 20.1497 38.6117C20.8878 38.8102 21.4273 39.4424 21.5077 40.2022L22.0845 45.3926H26.0005L26.5864 40.2022C26.6695 39.4424 27.2086 38.8111 27.9457 38.6099C28.6829 38.4087 29.4681 38.6785 29.9255 39.2907L33.0416 43.5137L36.4462 41.5416L34.3624 36.77C34.0563 36.0665 34.2116 35.2476 34.7534 34.7048ZM24.047 36.091C17.3688 36.091 11.9549 30.6772 11.9549 23.9989C11.9549 17.3206 17.3688 11.9068 24.047 11.9068C30.7253 11.9068 36.1392 17.3206 36.1392 23.9989C36.1314 30.674 30.7221 36.0833 24.047 36.091Z" fill="#D3001B"/>
<path id="Vector_7" d="M9.62048 10.8926L11.9459 11.9068L10.9317 9.56279L9.14586 7.66522L7.71338 9.09771L9.62048 10.8926Z" fill="#D3001B"/>
<path id="Vector_8" d="M43.1154 43.0673C43.2939 42.8938 43.3947 42.6553 43.3947 42.4069C43.3947 42.158 43.2939 41.9195 43.1154 41.746L38.381 37.0303L36.0742 36.0256L37.0789 38.351L41.8037 43.0673C41.9754 43.2453 42.212 43.3461 42.4595 43.3461C42.7071 43.3461 42.9437 43.2453 43.1154 43.0673Z" fill="#D3001B"/>
<path id="Vector_9" d="M43.0877 37.5421C42.8551 37.8428 42.5372 38.0662 42.1761 38.1839L44.4362 40.4348C45.2332 41.2328 45.4717 42.4323 45.0402 43.4742C44.6087 44.5161 43.5923 45.196 42.4641 45.1973C41.7256 45.2001 41.0162 44.9089 40.4925 44.388L38.2134 42.1184C38.0953 42.4718 37.8755 42.7825 37.5807 43.0114L40.4643 45.681C41.5244 46.757 43.1299 47.0858 44.5274 46.5122C45.925 45.939 46.8374 44.5778 46.836 43.0672C46.8433 42.0835 46.4545 41.1379 45.7569 40.4439L43.0877 37.5421Z" fill="#D3001B"/>
<path id="Vector_10" d="M9.95521 40.7882L12.0199 36.0256L7.23921 38.0999C6.37037 38.4791 5.35527 38.1421 4.88565 37.3187L3.98365 35.7468C3.11662 36.0302 2.32952 36.5143 1.68595 37.1606C0.241199 38.629 -0.299276 40.7623 0.272083 42.7416L2.92314 40.0815C3.28875 39.7186 3.87828 39.7186 4.24389 40.0815L7.96454 43.8021C8.32743 44.1673 8.32743 44.7573 7.96454 45.1229L5.3044 47.7739C8.25612 48.6328 11.3555 46.9882 12.2992 44.0624L10.7178 43.1599C9.89345 42.6816 9.56417 41.6575 9.95521 40.7882Z" fill="#D3001B"/>
<path id="Vector_11" d="M38.1389 7.20922L36.0742 11.9718L40.8549 9.89752C41.7237 9.51828 42.7388 9.85528 43.2085 10.6787L44.1105 12.2506C44.9775 11.9677 45.7646 11.4831 46.4082 10.8368C47.8529 9.3684 48.3934 7.23511 47.822 5.25579L45.171 7.91638C44.8054 8.27882 44.2158 8.27882 43.8502 7.91638L40.1296 4.19574C39.7667 3.83012 39.7667 3.24014 40.1296 2.87498L42.7897 0.223926C40.8108 -0.347433 38.6771 0.193042 37.2087 1.63779C36.5629 2.28136 36.0783 3.06846 35.7949 3.93504L37.3763 4.83749C38.2007 5.31575 38.5299 6.33992 38.1389 7.20922Z" fill="#D3001B"/>
</g>
<defs>
<clipPath id="clip0_6_110">
<rect width="47.9033" height="48" fill="white"/>
</clipPath>
</defs>
</svg>
