<svg width="48" height="48" viewBox="0 0 48 48" fill="none" xmlns="http://www.w3.org/2000/svg">
<g id="2 82">
<path id="Vector" d="M7.8411 40.8671C7.22435 40.8671 6.7243 41.3671 6.7243 41.9839C6.7243 42.6003 7.22435 43.1003 7.8411 43.1003C8.45785 43.1003 8.95754 42.6003 8.95754 41.9839C8.95682 41.3675 8.45714 40.8681 7.8411 40.8671Z" fill="#D3001B"/>
<path id="Vector_2" d="M7.8411 37.4828C5.36159 37.4828 3.35107 39.4926 3.35107 41.9725C3.35107 44.4523 5.36159 46.4621 7.8411 46.4621C10.3206 46.4621 12.3308 44.4523 12.3308 41.9725C12.3258 39.4947 10.3188 37.4871 7.8411 37.4828ZM7.8411 45.3682C5.9655 45.3682 4.44538 43.8477 4.44538 41.9725C4.44538 40.0969 5.9655 38.5764 7.8411 38.5764C9.7167 38.5764 11.2368 40.0969 11.2368 41.9725C11.2322 43.8459 9.7142 45.3635 7.8411 45.3682Z" fill="#D3001B"/>
<path id="Vector_3" d="M16.2169 31.2724C11.9774 27.0294 11.9774 20.1544 16.2169 15.9114L23.9766 8.15094C24.6498 8.76698 25.2537 9.45476 25.7773 10.2021C27.3727 12.4928 28.1019 15.1137 27.9199 17.9969C27.8885 18.4669 28.1522 18.9067 28.5809 19.1019C29.0049 19.2961 29.5046 19.215 29.8454 18.8967L32.2271 16.6406C33.8511 18.6258 34.7263 21.1181 34.6999 23.6829C34.7092 26.5547 33.5634 29.3108 31.5205 31.3292C31.3609 31.4887 31.1903 31.6479 31.0193 31.7964L30.9622 31.7735C31.8406 29.3472 31.4102 26.64 29.8226 24.6059L24.7861 18.1561C24.5691 17.8787 24.2375 17.7149 23.8856 17.7121C23.5326 17.7103 23.1986 17.8744 22.9855 18.1561L17.9601 24.6059C16.3786 26.6382 15.9481 29.339 16.8204 31.7621L16.7523 31.785C16.5699 31.6144 16.3879 31.4434 16.2169 31.2724Z" fill="#D3001B"/>
<path id="Vector_4" d="M19.7722 26.0072L23.8971 20.7202L28.0223 26.0072C29.7245 28.1854 29.4372 31.3113 27.3674 33.143C25.2976 34.9751 22.1592 34.8787 20.2051 32.9246C18.3274 31.0622 18.1411 28.0891 19.7722 26.0072Z" fill="#D3001B"/>
<path id="Vector_5" d="M11.2258 36.1154L16.3308 34.349C16.5017 34.474 16.6727 34.5882 16.8547 34.702C18.2788 35.6079 19.866 36.2271 21.5268 36.5252L14.6101 42.1887V41.9839C14.6208 39.5611 13.328 37.3193 11.2258 36.1154Z" fill="#D3001B"/>
<path id="Vector_6" d="M26.2106 36.5252C27.8685 36.23 29.455 35.619 30.8827 34.7249C31.0647 34.6107 31.2589 34.4857 31.4409 34.3601L36.5116 36.1154C34.4119 37.324 33.1177 39.5611 33.1159 41.9839V42.1887L26.2106 36.5252Z" fill="#D3001B"/>
<path id="Vector_7" d="M39.8849 40.8671C39.2681 40.8671 38.7681 41.3671 38.7681 41.9839C38.7681 42.6003 39.2681 43.1003 39.8849 43.1003C40.5013 43.1003 41.0017 42.6003 41.0017 41.9839C41.0002 41.3675 40.5009 40.8681 39.8849 40.8671Z" fill="#D3001B"/>
<path id="Vector_8" d="M39.8849 37.4828C37.405 37.4828 35.3948 39.4926 35.3948 41.9725C35.3948 44.4523 37.405 46.4621 39.8849 46.4621C42.3644 46.4621 44.3745 44.4523 44.3745 41.9725C44.3735 39.4929 42.3644 37.4831 39.8849 37.4828ZM39.8849 45.3682C38.0096 45.3682 36.4891 43.8477 36.4891 41.9725C36.4891 40.0969 38.0096 38.5764 39.8849 38.5764C41.7601 38.5764 43.2809 40.0969 43.2809 41.9725C43.2759 43.8459 41.7583 45.3635 39.8849 45.3682Z" fill="#D3001B"/>
<path id="Vector_9" d="M30.6321 4.53857H32.911V6.81785H30.6321V4.53857Z" fill="#D3001B"/>
<path id="Vector_10" d="M37.9821 16.162H40.261V18.4409H37.9821V16.162Z" fill="#D3001B"/>
<path id="Vector_11" d="M7.6134 13.883H9.89232V16.1619H7.6134V13.883Z" fill="#D3001B"/>
<path id="Vector_12" d="M15.9321 1.46194H18.211V3.74086H15.9321V1.46194Z" fill="#D3001B"/>
</g>
</svg>
