<svg width="224" height="55" viewBox="0 0 224 55" fill="none" xmlns="http://www.w3.org/2000/svg">
<g id="&#208;&#187;&#208;&#190;&#208;&#179;&#208;&#190;_1 2" clip-path="url(#clip0_18_423)">
<g id="Group">
<g id="Group_2">
<path id="Vector" d="M105.062 9.48697H99.8584V22.2604H94.5929V5.27051H105V9.48697H105.062Z" fill="white"/>
<path id="Vector_2" d="M117.327 22.2603H112.681V20.7721C111.876 22.0742 110.575 22.7563 108.841 22.7563C107.23 22.7563 105.929 22.1983 104.876 21.0201C103.761 19.842 103.203 18.2918 103.203 16.4316C103.203 14.5094 103.761 12.9592 104.876 11.7811C105.929 10.665 107.23 10.1069 108.841 10.1069C110.451 10.1069 111.752 10.727 112.619 11.9671V10.541H117.389V22.2603H117.327ZM112.681 16.3076C112.681 15.5635 112.434 15.0055 112 14.5714C111.566 14.1374 111.009 13.8893 110.327 13.8893C109.584 13.8893 109.026 14.1374 108.593 14.5714C108.159 15.0055 107.973 15.6255 107.973 16.3696C107.973 17.1137 108.159 17.6718 108.593 18.1058C109.026 18.5399 109.584 18.7879 110.327 18.7879C111.009 18.7879 111.628 18.5399 112.062 18.1058C112.496 17.6718 112.681 17.1137 112.681 16.3076Z" fill="white"/>
<path id="Vector_3" d="M134.239 16.1836C134.239 18.1678 133.681 19.718 132.566 20.9581C131.513 22.1362 130.15 22.6943 128.602 22.6943C127.115 22.6943 125.876 22.0122 124.823 20.7101C124.885 22.0122 124.885 22.6943 124.885 22.8183V28.3369H120.053V10.479H124.699V11.9051C125.504 10.665 126.805 10.0449 128.602 10.0449C130.212 10.0449 131.513 10.603 132.566 11.7191C133.681 12.8352 134.239 14.3854 134.239 16.1836ZM129.345 16.3696C129.345 15.6255 129.159 15.0055 128.726 14.5714C128.292 14.1374 127.735 13.9513 126.991 13.9513C126.31 13.9513 125.752 14.1374 125.319 14.5714C124.885 15.0055 124.699 15.5015 124.699 16.1836V16.3696C124.699 17.0517 124.947 17.6097 125.381 18.0438C125.814 18.5398 126.372 18.7259 126.991 18.7259C127.735 18.7259 128.292 18.5398 128.726 18.1058C129.159 17.7338 129.345 17.1137 129.345 16.3696Z" fill="white"/>
<path id="Vector_4" d="M149.602 22.2603H144.956V20.7721C144.15 22.0742 142.85 22.7563 141.115 22.7563C139.504 22.7563 138.204 22.1983 137.15 21.0201C136.035 19.842 135.478 18.2918 135.478 16.4316C135.478 14.5094 136.035 12.9592 137.15 11.7811C138.204 10.665 139.504 10.1069 141.115 10.1069C142.726 10.1069 144.027 10.727 144.894 11.9671V10.541H149.664V22.2603H149.602ZM144.956 16.3076C144.956 15.5635 144.708 15.0055 144.274 14.5714C143.841 14.1374 143.283 13.8893 142.602 13.8893C141.858 13.8893 141.301 14.1374 140.867 14.5714C140.434 15.0055 140.248 15.6255 140.248 16.3696C140.248 17.1137 140.434 17.6718 140.867 18.1058C141.301 18.5399 141.858 18.7879 142.602 18.7879C143.283 18.7879 143.903 18.5399 144.336 18.1058C144.77 17.6718 144.956 17.1137 144.956 16.3076Z" fill="white"/>
<path id="Vector_5" d="M165.089 22.2603H160.257V17.8578H157.097V22.2603H152.266V10.479H157.097V14.5715H160.257V10.479H165.089V22.2603Z" fill="white"/>
<path id="Vector_6" d="M177.354 14.1374H174.442V22.2603H169.611V14.1374H166.699V10.479H177.354V14.1374Z" fill="white"/>
</g>
<g id="Group_3">
<path id="Vector_7" d="M48.8142 4.83643H48.3806C48.5044 5.02245 48.6283 5.20847 48.7522 5.39449V4.83643H48.8142Z" fill="white"/>
<path id="Vector_8" d="M63.062 29.0191L80.7788 4.77441H63.062C62.1328 6.13856 61.1416 7.50271 60.2124 8.86686C58.292 11.6572 56.3098 14.5095 54.3894 17.2998C52.7788 19.594 51.1682 21.9503 49.5575 24.2445C47.2655 27.5929 43.3628 29.5771 39.2744 29.7631H39.2124H38.7168H38.531C36.6726 29.7631 34.8761 29.3291 33.2655 28.647V54.9379H48.7522V32.6155L63.1859 54.9379H81.9558L63.062 29.0191Z" fill="white"/>
<path id="Vector_9" d="M30.2301 4.89843C30.292 4.83643 30.354 4.83643 30.4779 4.83643H15.4867H0V20.3381V54.9999H15.4867V20.3381H25.646C25.2124 18.974 24.9646 17.5478 24.9646 16.1217C24.9646 15.9356 24.9646 15.6876 24.9646 15.3776C25.2124 7.75074 29.4248 5.33248 30.2301 4.89843Z" fill="white"/>
<path id="Vector_10" d="M38.7168 25.7948C44.0442 25.7948 48.3805 21.4543 48.3805 16.1217C48.3805 15.8737 48.3186 15.1296 48.3186 15.1296C48.0088 11.2852 46.2124 8.86693 44.6637 6.7587C44.1681 6.13863 43.7345 5.51857 43.3628 4.8985C42.5575 3.59636 41.938 2.29421 41.938 0.558024C41.938 0.372003 41.8142 0.185983 41.6283 0.0619696C41.4425 -3.71225e-05 41.2566 -3.71225e-05 41.0708 0.123976C39.4602 1.3021 37.9734 3.03829 36.9823 4.8985C36.5487 5.70459 36.2389 6.57268 35.9911 7.44077C35.4956 9.36298 35.4336 11.4712 35.4336 12.8974C34.3186 12.6493 33.6372 11.6572 33.2035 10.7271C32.8319 9.85904 32.708 9.11496 32.708 9.11496C32.708 8.92894 32.5841 8.80492 32.3982 8.74292C32.2743 8.68091 32.0885 8.68091 31.9027 8.74292C31.7788 8.80492 29.0531 10.1691 28.9292 15.6877C28.9292 15.8737 28.9292 16.0597 28.9292 16.2457C28.9292 17.7959 29.3009 19.2221 29.9203 20.4622C30.6637 21.9504 31.7788 23.2525 33.2035 24.2446C34.8142 25.1747 36.7345 25.7948 38.7168 25.7948ZM35.8673 19.3461C36.0531 19.7181 36.3009 20.0902 36.6726 20.3382C36.9204 20.5242 37.2301 20.6482 37.6018 20.6482C37.7876 20.6482 37.9734 20.5242 38.0973 20.3382C38.1593 20.2762 38.1593 20.1522 38.1593 20.0902C38.1593 19.3461 38.1593 18.416 38.3451 17.6719C38.531 16.9898 38.9027 16.1837 39.4602 15.6257C39.708 16.4318 40.1416 17.0518 40.5752 17.6719C41.1327 18.416 41.6283 19.2221 41.8761 20.4002C41.938 20.5862 41.938 20.8342 41.938 21.0203C41.938 21.0823 41.938 21.2063 41.938 21.3303C41.938 23.2525 40.5133 24.7407 38.7168 24.7407C36.9203 24.7407 35.4956 23.1905 35.4956 21.3303C35.4956 21.2683 35.4956 21.2063 35.4956 21.1443C35.4956 20.8962 35.4956 20.6482 35.5575 20.4622C35.6195 19.9041 35.7434 19.5941 35.8673 19.3461Z" fill="white"/>
</g>
<g id="Group_4">
<path id="Vector_11" d="M111.133 47.8692H104.752L99.8584 40.3044V47.8692H94.5929V30.8794H99.8584V38.0102L104.69 30.8794H110.699L104.69 39.0643L111.133 47.8692Z" fill="white"/>
<path id="Vector_12" d="M125.257 41.9785C125.257 43.7767 124.637 45.2649 123.336 46.505C121.973 47.7451 120.301 48.3652 118.133 48.3652C116.027 48.3652 114.292 47.7451 112.929 46.505C111.628 45.3269 111.009 43.7767 111.009 41.9785C111.009 40.1803 111.628 38.6921 112.929 37.514C114.292 36.2739 115.965 35.6538 118.133 35.6538C120.239 35.6538 121.973 36.2739 123.336 37.514C124.637 38.6921 125.257 40.1803 125.257 41.9785ZM119.743 40.4283C119.31 39.9323 118.814 39.6842 118.133 39.6842C117.451 39.6842 116.956 39.9323 116.522 40.4283C116.15 40.8624 115.965 41.4204 115.965 41.9785C115.965 42.5986 116.15 43.1566 116.522 43.5907C116.956 44.0867 117.451 44.3348 118.133 44.3348C118.814 44.3348 119.31 44.0867 119.743 43.5907C120.115 43.1566 120.301 42.5986 120.301 41.9785C120.301 41.3584 120.115 40.8624 119.743 40.4283Z" fill="white"/>
<path id="Vector_13" d="M144.46 47.8692H139.814L139.009 42.1646L137.089 47.8692H133.619L131.699 42.1646L130.894 47.8692H126.248L128.044 36.0879H133.372L135.292 42.7226L137.274 36.0879H142.602L144.46 47.8692Z" fill="white"/>
<path id="Vector_14" d="M165.956 41.9785C165.956 44.0248 165.522 45.5749 164.593 46.6911C163.664 47.8072 162.487 48.3032 160.876 48.3032C160.443 48.3032 159.947 48.2412 159.327 48.0552C158.708 47.8692 158.274 47.6212 158.027 47.3731V54.0079H153.319V47.3731C153.071 47.6212 152.637 47.8692 152.018 48.0552C151.46 48.2412 150.965 48.3032 150.469 48.3032C148.92 48.3032 147.681 47.7452 146.814 46.6911C145.885 45.5749 145.389 43.9628 145.389 41.9785C145.389 39.9943 145.885 38.3821 146.814 37.266C147.681 36.2119 148.92 35.6539 150.469 35.6539C151.46 35.6539 152.389 35.9639 153.257 36.646V30.0732H157.965V36.646C158.832 35.9639 159.823 35.6539 160.752 35.6539C162.301 35.6539 163.54 36.2119 164.469 37.266C165.522 38.3821 165.956 39.9323 165.956 41.9785ZM153.504 43.9628V40.0563C153.009 39.6843 152.451 39.5603 151.894 39.5603C150.717 39.5603 150.159 40.3664 150.159 42.0406C150.159 42.7846 150.345 43.3427 150.655 43.7767C150.965 44.2108 151.46 44.3968 152.018 44.3968C152.575 44.3968 153.071 44.2728 153.504 43.9628ZM161.248 42.1026C161.248 41.2965 161.124 40.7384 160.814 40.3044C160.504 39.8703 160.071 39.6223 159.513 39.6223C158.956 39.6223 158.398 39.8083 157.903 40.1183V44.0248C158.274 44.3348 158.77 44.4588 159.389 44.4588C159.947 44.4588 160.443 44.2728 160.752 43.8387C161.124 43.4047 161.248 42.7846 161.248 42.1026Z" fill="white"/>
<path id="Vector_15" d="M181.38 41.9785C181.38 43.7767 180.761 45.2649 179.46 46.505C178.097 47.7451 176.425 48.3652 174.257 48.3652C172.15 48.3652 170.416 47.7451 169.053 46.505C167.752 45.3269 167.133 43.7767 167.133 41.9785C167.133 40.1803 167.752 38.6921 169.053 37.514C170.416 36.2739 172.088 35.6538 174.257 35.6538C176.363 35.6538 178.097 36.2739 179.46 37.514C180.761 38.6921 181.38 40.1803 181.38 41.9785ZM175.867 40.4283C175.434 39.9323 174.938 39.6842 174.257 39.6842C173.575 39.6842 173.08 39.9323 172.646 40.4283C172.274 40.8624 172.088 41.4204 172.088 41.9785C172.088 42.5986 172.274 43.1566 172.646 43.5907C173.08 44.0867 173.575 44.3348 174.257 44.3348C174.938 44.3348 175.434 44.0867 175.867 43.5907C176.239 43.1566 176.425 42.5986 176.425 41.9785C176.425 41.3584 176.239 40.8624 175.867 40.4283Z" fill="white"/>
<path id="Vector_16" d="M197.549 41.8545C197.549 43.8387 196.991 45.3889 195.876 46.629C194.823 47.8071 193.46 48.3652 191.911 48.3652C190.425 48.3652 189.186 47.6831 188.133 46.381C188.195 47.6831 188.195 48.3652 188.195 48.4892V54.0078H183.363V36.1499H188.009V37.576C188.814 36.3359 190.115 35.7158 191.911 35.7158C193.522 35.7158 194.823 36.2739 195.876 37.39C196.929 38.5061 197.549 39.9943 197.549 41.8545ZM192.655 41.9785C192.655 41.2344 192.469 40.6144 192.035 40.1803C191.602 39.7463 191.044 39.5602 190.301 39.5602C189.619 39.5602 189.062 39.7463 188.628 40.1803C188.195 40.6144 188.009 41.1104 188.009 41.7925V41.9785C188.009 42.6606 188.257 43.2186 188.69 43.6527C189.124 44.1487 189.681 44.3348 190.301 44.3348C191.044 44.3348 191.602 44.1487 192.035 43.7147C192.469 43.3427 192.655 42.7846 192.655 41.9785Z" fill="white"/>
<path id="Vector_17" d="M208.947 39.7463H206.035V47.8692H201.203V39.7463H198.292V36.0879H208.947V39.7463Z" fill="white"/>
<path id="Vector_18" d="M223.938 47.8691H219.292V46.381C218.487 47.6831 217.186 48.3652 215.451 48.3652C213.841 48.3652 212.54 47.8071 211.487 46.629C210.372 45.4509 209.814 43.9007 209.814 42.0405C209.814 40.1183 210.372 38.5681 211.487 37.39C212.54 36.2739 213.841 35.7158 215.451 35.7158C217.062 35.7158 218.363 36.3359 219.23 37.576V36.1499H224L223.938 47.8691ZM219.354 41.9785C219.354 41.2344 219.106 40.6764 218.672 40.2423C218.239 39.8083 217.681 39.5602 217 39.5602C216.257 39.5602 215.699 39.8083 215.265 40.2423C214.832 40.6764 214.646 41.2964 214.646 42.0405C214.646 42.7846 214.832 43.3427 215.265 43.7767C215.699 44.2107 216.257 44.4588 217 44.4588C217.681 44.4588 218.301 44.2107 218.734 43.7767C219.106 43.3427 219.354 42.7226 219.354 41.9785Z" fill="white"/>
</g>
</g>
</g>
<defs>
<clipPath id="clip0_18_423">
<rect width="224" height="55" fill="white"/>
</clipPath>
</defs>
</svg>
