<svg width="34" height="34" viewBox="0 0 34 34" fill="none" xmlns="http://www.w3.org/2000/svg">
<g id="mobile_phone_c0jdeja00g8i 4">
<g id="Group">
<path id="Vector" d="M25.6455 28.3332V5.66657C25.6455 4.41422 24.6312 3.3999 23.3788 3.3999H10.6175C9.37082 3.3999 8.35083 4.41422 8.35083 5.66657V28.3332C8.35083 29.5799 9.37082 30.5999 10.6175 30.5999H23.3788C24.6312 30.5999 25.6455 29.5799 25.6455 28.3332ZM14.6125 5.54188H19.3895C19.7011 5.54188 19.9562 5.79689 19.9562 6.10855C19.9562 6.42021 19.7011 6.67522 19.3895 6.67522H14.6125C14.3008 6.67522 14.0458 6.42021 14.0458 6.10855C14.0458 5.79689 14.3008 5.54188 14.6125 5.54188ZM9.48416 25.3469V8.69255H24.5121V25.3469H9.48416ZM17.4968 28.5372H16.5051C16.1935 28.5372 15.9385 28.2822 15.9385 27.9706C15.9385 27.6589 16.1935 27.4039 16.5051 27.4039H17.4968C17.8085 27.4039 18.0635 27.6589 18.0635 27.9706C18.0635 28.2822 17.8085 28.5372 17.4968 28.5372Z" fill="#6B6B71"/>
<path id="Vector_2" d="M5.96158 13.5421C6.18314 13.3206 6.18314 12.9625 5.96158 12.7409C5.74002 12.5193 5.38187 12.5193 5.16031 12.7409C2.81375 15.088 2.81375 18.9062 5.16031 21.2528C5.27082 21.3639 5.41587 21.4188 5.56096 21.4188C5.70602 21.4188 5.85108 21.3639 5.96158 21.2528C6.18314 21.0318 6.18314 20.6731 5.96158 20.4515C4.057 18.547 4.057 15.4473 5.96158 13.5421Z" fill="#6B6B71"/>
<path id="Vector_3" d="M7.10327 19.8767C7.24833 19.8767 7.39339 19.8212 7.50389 19.7106C7.72549 19.4897 7.72549 19.131 7.50389 18.9094C6.44934 17.8548 6.44934 16.139 7.50389 15.0844C7.72549 14.8628 7.72549 14.5047 7.50389 14.2831C7.28233 14.0616 6.92422 14.0616 6.70262 14.2831C5.20606 15.7797 5.20606 18.2141 6.70262 19.7106C6.81313 19.8212 6.95822 19.8767 7.10327 19.8767Z" fill="#6B6B71"/>
<path id="Vector_4" d="M28.0384 20.4515C27.8168 20.6731 27.8168 21.0318 28.0384 21.2528C28.1489 21.3639 28.2939 21.4188 28.439 21.4188C28.5841 21.4188 28.7291 21.3639 28.8396 21.2528C31.1862 18.9062 31.1862 15.088 28.8396 12.7409C28.6181 12.5193 28.2599 12.5193 28.0384 12.7409C27.8168 12.9625 27.8168 13.3206 28.0384 13.5421C29.9429 15.4473 29.9429 18.547 28.0384 20.4515Z" fill="#6B6B71"/>
<path id="Vector_5" d="M26.4961 19.7106C26.6066 19.8212 26.7517 19.8767 26.8967 19.8767C27.0418 19.8767 27.1869 19.8212 27.2974 19.7106C28.794 18.2141 28.794 15.7797 27.2974 14.2831C27.0758 14.0616 26.7177 14.0616 26.4961 14.2831C26.2746 14.5047 26.2746 14.8628 26.4961 15.0844C27.5507 16.139 27.5507 17.8548 26.4961 18.9094C26.2746 19.131 26.2746 19.4897 26.4961 19.7106Z" fill="#6B6B71"/>
<path id="Vector_6" d="M17.6117 17.8324C19.0459 17.4934 19.9338 16.0559 19.5947 14.6216C19.2557 13.1874 17.8182 12.2995 16.3839 12.6386C14.9497 12.9776 14.0618 14.4151 14.4009 15.8494C14.7399 17.2836 16.1774 18.1715 17.6117 17.8324Z" fill="#6B6B71"/>
<path id="Vector_7" d="M16.998 19.0456C15.7803 19.0456 14.6917 18.4676 14.0061 17.5723C13.0937 18.4336 12.5101 19.6576 12.3457 20.7683C12.3174 20.9326 12.3684 21.097 12.4761 21.2216C12.5837 21.3463 12.7424 21.42 12.9067 21.42H21.0951C21.2594 21.42 21.4181 21.3463 21.5257 21.2216C21.6334 21.097 21.6787 20.9326 21.6561 20.7683C21.4917 19.6576 20.9081 18.4336 19.9957 17.5723C19.3044 18.4676 18.2164 19.0456 16.998 19.0456Z" fill="#6B6B71"/>
</g>
</g>
</svg>
