<svg width="25" height="24" viewBox="0 0 25 24" fill="none" xmlns="http://www.w3.org/2000/svg">
<g id="&#208;&#181;&#208;&#189;&#209;&#130;&#208;&#181;&#209;&#128; 1" clip-path="url(#clip0_1_185)">
<path id="Vector" d="M15.9346 12.7837H0.783673C0.351084 12.7837 0 12.4326 0 12C0 11.5674 0.351084 11.2163 0.783673 11.2163H15.9346C16.3672 11.2163 16.7183 11.5674 16.7183 12C16.7183 12.4326 16.3672 12.7837 15.9346 12.7837Z" fill="#D3001B"/>
<path id="Vector_2" d="M11.7552 16.9632C11.5545 16.9632 11.354 16.8871 11.2013 16.7334C10.8951 16.4273 10.8951 15.931 11.2013 15.6247L14.8271 11.9991L11.2013 8.37324C10.8951 8.06712 10.8951 7.57063 11.2013 7.2645C11.5076 6.95838 12.0039 6.95838 12.31 7.2645L16.4895 11.4442C16.7957 11.7503 16.7957 12.2466 16.4895 12.5528L12.31 16.7323C12.1564 16.8871 11.9559 16.9632 11.7552 16.9632Z" fill="#D3001B"/>
<path id="Vector_3" d="M12.5388 23.494C7.78336 23.494 3.58508 20.6331 1.84114 16.2046C1.68234 15.8034 1.88075 15.3479 2.28311 15.1891C2.68432 15.0324 3.14101 15.2277 3.29981 15.6322C4.80555 19.4555 8.43234 21.9266 12.5388 21.9266C18.0119 21.9266 22.4654 17.4731 22.4654 12C22.4654 6.52696 18.0119 2.07345 12.5388 2.07345C8.43234 2.07345 4.80555 4.54462 3.29981 8.3679C3.13987 8.77237 2.68432 8.96771 2.28311 8.81101C1.88075 8.65221 1.68234 8.19666 1.84114 7.79545C3.58508 3.36701 7.78336 0.506104 12.5388 0.506104C18.8761 0.506104 24.0327 5.66274 24.0327 12C24.0327 18.3374 18.8761 23.494 12.5388 23.494Z" fill="#D3001B"/>
</g>
<defs>
<clipPath id="clip0_1_185">
<rect width="24.0327" height="24" fill="white"/>
</clipPath>
</defs>
</svg>
