<svg width="25" height="25" viewBox="0 0 25 25" fill="none" xmlns="http://www.w3.org/2000/svg">
<g id="&#208;&#191;&#208;&#190;&#208;&#184;&#209;&#129;&#208;&#186; 2" clip-path="url(#clip0_1_224)">
<path id="Vector" fill-rule="evenodd" clip-rule="evenodd" d="M11.1617 1.01245C5.53727 1.01245 0.977783 5.57194 0.977783 11.1964C0.977783 16.8208 5.53727 21.3803 11.1617 21.3803C16.7861 21.3803 21.3456 16.8208 21.3456 11.1964C21.3456 5.57194 16.7861 1.01245 11.1617 1.01245ZM24.5581 24.4922C23.9914 25.0688 23.0592 25.077 22.4826 24.5104L18.4118 20.5103C19.1862 19.9066 19.8832 19.2084 20.4859 18.4331L24.5399 22.4167C25.1165 22.9833 25.1247 23.9155 24.5581 24.4922ZM11.1617 3.84792C15.2201 3.84792 18.5101 7.13794 18.5101 11.1963C18.5101 15.2547 15.2201 18.5447 11.1617 18.5447C7.10327 18.5447 3.8133 15.2547 3.8133 11.1963C3.8133 7.13794 7.10331 3.84792 11.1617 3.84792Z" fill="#161616"/>
</g>
<defs>
<clipPath id="clip0_1_224">
<rect width="24" height="24" fill="white" transform="translate(0.977783 0.971191)"/>
</clipPath>
</defs>
</svg>
