<svg width="26" height="26" viewBox="0 0 26 26" fill="none" xmlns="http://www.w3.org/2000/svg">
<g id="whatsapp 3" clip-path="url(#clip0_56_6)">
<path id="Vector" d="M13.2162 0C6.16715 0 0.432851 5.7343 0.432851 12.7833C0.432851 15.0133 1.01612 17.2042 2.12112 19.1317L0.0216176 25.4297C-0.0286491 25.581 0.00775091 25.7469 0.116518 25.8631C0.199718 25.9519 0.314984 26 0.432851 26C0.469684 26 0.506518 25.9952 0.542918 25.9857L7.41862 24.1765C9.20482 25.0865 11.2055 25.5667 13.2162 25.5667C20.2652 25.5667 25.9995 19.8324 25.9995 12.7833C25.9995 5.7343 20.2652 0 13.2162 0ZM21.193 18.5878L20.4312 19.3501C19.4692 20.3121 18.3958 20.8 17.2419 20.8C15.6862 20.8 14.0088 19.9117 12.2572 18.1597L7.83982 13.7427C6.45835 12.3613 5.60945 11.0192 5.31652 9.75347C4.96118 8.21643 5.40969 6.80853 6.64989 5.56877L7.41212 4.80653C7.90222 4.31643 8.69479 4.19597 9.30882 4.52097C10.4624 5.13153 11.6575 7.1318 11.7901 7.358C12.0293 7.77703 12.1025 8.21037 11.9994 8.58173C11.9205 8.86557 11.7429 9.09697 11.4846 9.25427C11.1345 9.5472 10.7241 9.91207 10.6517 10.0048C10.2115 10.6544 10.2617 11.1531 10.829 11.7208L14.2792 15.171C14.8512 15.7434 15.3413 15.7907 16.0012 15.3435C16.0883 15.2754 16.4528 14.8651 16.7457 14.5149C16.9645 14.1531 17.3229 13.9551 17.7588 13.9551C18.0444 13.9551 18.3482 14.0417 18.6372 14.2064C18.8677 14.342 20.8684 15.5372 21.4786 16.6903C21.8122 17.3212 21.6978 18.083 21.193 18.5878Z" fill="#747479"/>
</g>
<defs>
<clipPath id="clip0_56_6">
<rect width="26" height="26" fill="white"/>
</clipPath>
</defs>
</svg>
