<svg width="19" height="19" viewBox="0 0 19 19" fill="none" xmlns="http://www.w3.org/2000/svg">
<g id="&#208;&#186;&#209;&#128;&#209;&#139;&#208;&#182;&#208;&#184;&#208;&#186; 1" clip-path="url(#clip0_1_180)">
<path id="Vector" d="M18.5409 8.64182L17.0478 6.66826L17.096 4.1937C17.1022 3.87832 16.8978 3.59735 16.5958 3.50585L14.2271 2.78841L12.8137 0.75664C12.6333 0.497268 12.3023 0.389667 12.0037 0.493553L9.66596 1.30703L7.32804 0.493553C7.02973 0.389804 6.69866 0.497131 6.51827 0.75664L5.10487 2.78841L2.73612 3.50585C2.43409 3.59735 2.22976 3.87832 2.23595 4.1937L2.28411 6.66826L0.791039 8.64182C0.600741 8.89321 0.600741 9.24051 0.791039 9.4919L2.28411 11.4655L2.23595 13.94C2.22976 14.2554 2.43409 14.5365 2.73612 14.6279L5.10487 15.3455L6.51827 17.3771C6.69866 17.6365 7.02959 17.7441 7.32804 17.6402L9.66596 16.8267L12.0039 17.6402C12.3022 17.7439 12.6333 17.6366 12.8137 17.3771L14.2271 15.3453L16.5958 14.6279C16.8978 14.5364 17.1022 14.2554 17.096 13.94L17.0478 11.4655L18.5409 9.4919C18.7312 9.24051 18.7312 8.89321 18.5409 8.64182ZM15.777 10.81C15.6816 10.9361 15.6314 11.0907 15.6344 11.2488L15.6769 13.4341L13.5843 14.0679C13.4326 14.1138 13.3007 14.2096 13.2102 14.3397L11.9622 16.1339L9.89754 15.4155C9.74756 15.3632 9.58437 15.3632 9.43439 15.4155L7.36973 16.1339L6.12172 14.3397C6.03118 14.2096 5.89936 14.1138 5.74759 14.0679L3.655 13.4341L3.69752 11.2488C3.70055 11.0907 3.65032 10.9361 3.55497 10.8101L2.23623 9.06686L3.55497 7.32377C3.65046 7.1976 3.70068 7.04307 3.69752 6.88497L3.655 4.69964L5.74759 4.06587C5.89936 4.01991 6.03118 3.92414 6.12172 3.79397L7.36973 1.99984L9.43452 2.71824C9.58437 2.77038 9.74756 2.77038 9.89754 2.71824L11.9622 1.99984L13.2103 3.79397C13.3009 3.92401 13.4327 4.01991 13.5843 4.06587L15.6769 4.69964L15.6344 6.88497C15.6314 7.04307 15.6816 7.1976 15.777 7.32364L17.0957 9.06686L15.777 10.81ZM13.2917 6.48374C13.5667 6.7588 13.5667 7.20489 13.2917 7.48008L9.12162 11.65C8.84712 11.9245 8.40075 11.9255 8.12528 11.65L6.04026 9.5651C5.7652 9.28991 5.7652 8.84382 6.04026 8.56876C6.31545 8.29356 6.76155 8.29356 7.0366 8.56876L8.62352 10.1555L12.2953 6.48374C12.5704 6.20854 13.0165 6.20854 13.2917 6.48374Z" fill="#D3001B"/>
</g>
<defs>
<clipPath id="clip0_1_180">
<rect width="18.0352" height="18" fill="white" transform="translate(0.683594 0.0493164)"/>
</clipPath>
</defs>
</svg>
