<svg width="24" height="24" viewBox="0 0 24 24" fill="none" xmlns="http://www.w3.org/2000/svg">
<g clip-path="url(#clip0_1_206)">
<path d="M7.23025 5.83694H6.30151V4.9082C6.30151 4.51989 5.98675 4.20508 5.59839 4.20508C5.21012 4.20508 4.89526 4.51989 4.89526 4.9082V6.54002C4.89531 6.92838 5.21012 7.24319 5.59844 7.24319H7.23025C7.61861 7.24319 7.93337 6.92837 7.93337 6.54006C7.93337 6.15175 7.61861 5.83694 7.23025 5.83694Z" fill="#747479"/>
<path d="M5.59847 0.941406C2.51147 0.941406 0 3.45288 0 6.53988C0 9.62678 2.51147 12.1382 5.59847 12.1382C8.68542 12.1382 11.1969 9.62678 11.1969 6.53983C11.1969 3.45287 8.68547 0.941406 5.59847 0.941406ZM5.59847 10.732C3.28683 10.732 1.40625 8.85142 1.40625 6.53988C1.40625 4.22828 3.28683 2.34766 5.59847 2.34766C7.91006 2.34766 9.79069 4.22828 9.79069 6.53988C9.79069 8.85142 7.91011 10.732 5.59847 10.732Z" fill="#747479"/>
<path d="M23.9279 13.0093C23.9269 13.0074 23.9267 13.0055 23.9257 13.0037L21.6664 8.48493C21.5473 8.24671 21.3039 8.09624 21.0375 8.09624H15.7157V6.54004C15.7157 6.15173 15.4009 5.83691 15.0126 5.83691H12.568C12.5912 6.06824 12.6032 6.30271 12.6032 6.54004C12.6032 10.4024 9.46092 13.5447 5.59847 13.5447C3.3127 13.5447 1.27936 12.4441 0 10.7451V20.0962C0 20.4846 0.314812 20.7994 0.703125 20.7994H3.85059C4.16719 22.0945 5.33686 23.0587 6.72811 23.0587C8.11945 23.0587 9.28912 22.0945 9.60563 20.7994H14.3945C14.711 22.0945 15.8806 23.0587 17.2719 23.0587C18.6631 23.0587 19.8328 22.0945 20.1494 20.7994H23.2969C23.6852 20.7994 24 20.4846 24 20.0962V13.3181C24 13.2071 23.9737 13.1026 23.9279 13.0093ZM6.72811 21.6524C5.86997 21.6524 5.17191 20.9543 5.17191 20.0962C5.17191 19.2381 5.87002 18.54 6.72811 18.54C7.5862 18.54 8.28441 19.2381 8.28441 20.0962C8.28441 20.9543 7.58625 21.6524 6.72811 21.6524ZM17.2719 21.6524C16.4137 21.6524 15.7157 20.9543 15.7157 20.0962C15.7157 19.2381 16.4138 18.54 17.2719 18.54C18.13 18.54 18.8281 19.2381 18.8281 20.0962C18.8281 20.9543 18.13 21.6524 17.2719 21.6524ZM15.7157 12.6149V9.50244H20.6031L22.1593 12.6149H15.7157Z" fill="#747479"/>
</g>
<defs>
<clipPath id="clip0_1_206">
<rect width="24" height="24" fill="white"/>
</clipPath>
</defs>
</svg>
