<svg width="25" height="24" viewBox="0 0 25 24" fill="none" xmlns="http://www.w3.org/2000/svg">
<path d="M21.2388 9V20.993C21.2397 21.1243 21.2148 21.2545 21.1654 21.3762C21.116 21.4979 21.0431 21.6087 20.9509 21.7022C20.8587 21.7957 20.7489 21.8701 20.628 21.9212C20.507 21.9723 20.3771 21.9991 20.2458 22H4.23177C3.96858 22 3.71616 21.8955 3.52997 21.7095C3.34377 21.5235 3.23904 21.2712 3.23877 21.008V2.992C3.23877 2.455 3.68577 2 4.23677 2H14.2388V8C14.2388 8.26522 14.3442 8.51957 14.5317 8.70711C14.7192 8.89464 14.9736 9 15.2388 9H21.2388ZM21.2388 7H16.2388V2.003L21.2388 7ZM8.23877 7V9H11.2388V7H8.23877ZM8.23877 11V13H16.2388V11H8.23877ZM8.23877 15V17H16.2388V15H8.23877Z" fill="#747479"/>
</svg>
