<svg width="23" height="23" viewBox="0 0 23 23" fill="none" xmlns="http://www.w3.org/2000/svg">
<path d="M3.09126 15.8296C2.61983 15.8296 2.30554 16.1438 2.30554 16.6153C2.30554 17.0867 2.61983 17.401 3.09126 17.401H3.87697V18.9724C3.87697 20.3081 4.97697 21.4081 6.31269 21.4081H17.627C18.9627 21.4081 20.0627 20.3081 20.0627 18.9724V4.90813C20.0627 3.57241 18.9627 2.47241 17.627 2.47241H6.31269C4.97697 2.47241 3.87697 3.57241 3.87697 4.90813V6.47955H3.09126C2.61983 6.47955 2.30554 6.79384 2.30554 7.26527C2.30554 7.7367 2.61983 8.05098 3.09126 8.05098H3.87697V11.1153H3.09126C2.61983 11.1153 2.30554 11.4296 2.30554 11.901C2.30554 12.3724 2.61983 12.6867 3.09126 12.6867H3.87697V15.8296H3.09126ZM8.59126 14.1796C8.90554 13.001 9.8484 12.1367 10.9484 11.8224C10.477 11.5081 10.1627 10.9581 10.1627 10.4081C10.1627 9.46527 10.9484 8.67955 11.8913 8.67955C12.8341 8.67955 13.6198 9.46527 13.6198 10.4081C13.6198 11.0367 13.3055 11.5081 12.8341 11.8224C14.0127 12.1367 14.877 13.0796 15.1913 14.1796C15.3484 14.651 15.0341 15.0438 14.5627 15.0438H9.21983C8.82697 15.0438 8.51269 14.5724 8.59126 14.1796Z" fill="#747479"/>
</svg>
