<svg width="24" height="24" viewBox="0 0 24 24" fill="none" xmlns="http://www.w3.org/2000/svg">
<g clip-path="url(#clip0_1_216)">
<path d="M1.97882 17.3223V6.89922C1.46315 6.87889 0.962353 6.86251 0.484706 6.84788C0.219294 6.83979 0 7.05273 0 7.31828V19.459C0 19.7091 0.195247 19.9155 0.444988 19.9289C2.93256 20.0629 6.20998 20.2059 9.29788 20.9538C6.99341 19.1778 4.47106 18.3754 2.55482 18.0159C2.22071 17.9533 1.97882 17.6616 1.97882 17.3223Z" fill="#747479"/>
<path d="M22.0212 6.81367V17.3224C22.0212 17.6617 21.7793 17.9534 21.4452 18.016C19.529 18.3756 17.0066 19.1779 14.7021 20.9539C17.7853 20.207 21.0543 20.0637 23.555 19.929C23.8048 19.9155 24 19.7092 24 19.4591V7.26704C24 7.00751 23.7901 6.79682 23.5305 6.79645C23.1131 6.79584 22.6 6.79974 22.0212 6.81367Z" fill="#747479"/>
<path d="M3.39062 3.51672V16.746C5.72427 17.2589 8.71345 18.3775 11.2942 20.8006V6.91728C9.65651 4.85837 6.62074 3.54646 3.94837 3.05413C3.65839 3.00072 3.39062 3.22185 3.39062 3.51672ZM9.25604 14.2952C9.05298 14.6274 8.61858 14.7328 8.28568 14.5295C7.90404 14.2966 6.9271 13.7399 6.08992 13.5982C5.70545 13.5333 5.44662 13.169 5.51157 12.7846C5.57651 12.4001 5.94074 12.1413 6.32521 12.2062C7.36568 12.3818 8.46121 12.9822 9.02121 13.3248C9.35392 13.5281 9.45886 13.9625 9.25604 14.2952ZM9.27204 9.83258C9.04935 10.1525 8.60832 10.2304 8.28945 10.0081C7.82968 9.68811 6.97792 9.26081 6.08992 9.1107C5.70545 9.04576 5.44662 8.68152 5.51157 8.29705C5.57651 7.91258 5.94074 7.65375 6.32521 7.7187C7.44239 7.9074 8.48945 8.42693 9.09651 8.84999C9.41651 9.07258 9.4951 9.51258 9.27204 9.83258Z" fill="#747479"/>
<path d="M20.0518 3.05414C17.3923 3.54464 14.3421 4.85419 12.7059 6.91725V20.8005C15.2866 18.3775 18.2758 17.2589 20.6095 16.746V3.51678C20.6095 3.22191 20.3417 3.00068 20.0518 3.05414ZM17.9102 13.5982C17.073 13.7398 16.0961 14.2965 15.7144 14.5295C15.3815 14.7328 14.9471 14.6272 14.7441 14.2951C14.5412 13.9624 14.6462 13.5281 14.9789 13.3248C15.5389 12.9822 16.6344 12.3817 17.6749 12.2062C18.0593 12.1408 18.4236 12.4001 18.4885 12.7845C18.5535 13.169 18.2946 13.5332 17.9102 13.5982ZM17.9102 9.11066C17.0222 9.26078 16.1704 9.68807 15.7106 10.0081C15.3921 10.2302 14.951 10.1527 14.7281 9.83254C14.505 9.51254 14.5836 9.07254 14.9036 8.84995C15.5106 8.42689 16.5577 7.90736 17.6749 7.71866C18.0593 7.65325 18.4236 7.91254 18.4885 8.29701C18.5535 8.68148 18.2946 9.04572 17.9102 9.11066Z" fill="#747479"/>
</g>
<defs>
<clipPath id="clip0_1_216">
<rect width="24" height="24" fill="white"/>
</clipPath>
</defs>
</svg>
