<svg width="25" height="24" viewBox="0 0 25 24" fill="none" xmlns="http://www.w3.org/2000/svg">
<g clip-path="url(#clip0_1_197)">
<path d="M21.3713 14.0517C21.0964 10.4723 19.4299 8.22933 17.9597 6.24998C16.5984 4.41754 15.4226 2.83514 15.4226 0.500856C15.4226 0.313356 15.3176 0.141981 15.1511 0.0560595C14.9841 -0.030378 14.7834 -0.0162217 14.6316 0.094122C12.4236 1.67409 10.5813 4.33701 9.93776 6.87783C9.491 8.64675 9.43189 10.6354 9.42359 11.9488C7.38453 11.5132 6.92262 8.46319 6.91775 8.42995C6.89478 8.27175 6.79812 8.13408 6.6575 8.05889C6.51542 7.98468 6.3484 7.97929 6.20436 8.05059C6.09744 8.10234 3.57983 9.38156 3.43334 14.4891C3.42308 14.659 3.42261 14.8295 3.42261 14.9999C3.42261 19.9619 7.46019 23.9992 12.4226 23.9992C12.4295 23.9997 12.4368 24.0007 12.4426 23.9992C12.4446 23.9992 12.4465 23.9992 12.449 23.9992C17.3992 23.985 21.4226 19.9531 21.4226 14.9999C21.4226 14.7503 21.3713 14.0517 21.3713 14.0517ZM12.4226 22.9993C10.7683 22.9993 9.42261 21.5658 9.42261 19.8037C9.42261 19.7437 9.42214 19.6831 9.4265 19.6089C9.44651 18.8658 9.58765 18.3585 9.74244 18.0211C10.0325 18.6442 10.551 19.2169 11.3933 19.2169C11.6697 19.2169 11.8933 18.9932 11.8933 18.7169C11.8933 18.0051 11.908 17.1838 12.0852 16.4426C12.243 15.7854 12.6199 15.0862 13.0975 14.5258C13.3099 15.2533 13.724 15.8421 14.1282 16.4167C14.7069 17.2389 15.305 18.089 15.41 19.5386C15.4163 19.6245 15.4227 19.711 15.4227 19.8037C15.4226 21.5658 14.0769 22.9993 12.4226 22.9993Z" fill="#747479"/>
</g>
<defs>
<clipPath id="clip0_1_197">
<rect width="24" height="24" fill="white" transform="translate(0.422607)"/>
</clipPath>
</defs>
</svg>
