<svg width="20" height="20" viewBox="0 0 20 20" fill="none" xmlns="http://www.w3.org/2000/svg">
<g clip-path="url(#clip0_1_201)">
<path d="M9.02468 10.9723V10.7846C9.02468 8.22705 11.1 6.16041 13.658 6.16041H18.6484V4.76715C18.6484 4.46174 18.4013 4.21411 18.0958 4.21411H3.47467C2.92423 4.21411 2.4785 3.76402 2.4785 3.21358C2.4785 2.66358 2.92467 2.2135 3.47467 2.2135H18.121C18.4121 2.2135 18.6484 1.97716 18.6484 1.68608V1.20689C18.6484 0.943621 18.436 0.754639 18.1723 0.754639H1.8555C0.823703 0.754639 0 1.56574 0 2.59754V17.3755C0 18.4073 0.823703 19.2458 1.8555 19.2458H16.7816C17.8134 19.2458 18.6484 18.4073 18.6484 17.3755V15.6234H13.658C11.1 15.6221 9.02468 13.5303 9.02468 10.9723Z" fill="#747479"/>
<path d="M18.7631 7.62061H13.658C11.9211 7.62061 10.5387 9.04905 10.5387 10.786V10.9728C10.5387 12.7097 11.9211 14.109 13.658 14.109H18.7636C19.4348 14.109 20.0004 13.5738 20.0004 12.9034V8.85659C20 8.18495 19.4343 7.62061 18.7631 7.62061ZM13.9382 12.2492C13.1818 12.2492 12.5684 11.6362 12.5684 10.8794C12.5684 10.1234 13.1818 9.51 13.9382 9.51C14.6946 9.51 15.308 10.1234 15.308 10.8794C15.308 11.6362 14.6946 12.2492 13.9382 12.2492Z" fill="#747479"/>
</g>
<defs>
<clipPath id="clip0_1_201">
<rect width="20" height="20" fill="white"/>
</clipPath>
</defs>
</svg>
